#!OML:ASF \\sashay\E\Suitcase\Project 1\Capture day 1\Session 1\Male1.ASF
:FULLY-SPECIFIED
:DEGREES
575
root 0.446506 17.5547 -13.1637 10.3441 6.40017 -3.45608
lowerback 5.92383 -0.226093 4.21345
upperback 1.16312 0.0395561 3.09204
thorax -2.12262 0.00229741 0.819193
lowerneck -14.0883 -0.346314 -1.44302
upperneck 26.209 2.01596 -7.47375
head 10.8653 -0.105947 -2.18055
rclavicle 9.54166e-015 1.51076e-014
rhumerus -49.1826 -33.645 -52.4332
rradius 10.4989
rwrist 8.82995
rhand -12.9569 15.3502
rfingers 7.12502
rthumb 13.1348 -14.2162
lclavicle 9.54166e-015 1.51076e-014
lhumerus -41.7976 6.10752 78.011
lradius 28.5021
lwrist -2.39779
lhand -0.664337 41.155
lfingers 7.12502
lthumb 24.9539 69.5457
rfemur -2.662 2.07662 30.4016
rtibia 12.194
rfoot -15.8831 -8.21652
rtoes 12.0487
lfemur -37.0117 -5.06404 -14.3494
ltibia 31.0435
lfoot -15.0168 -2.13421
ltoes -7.05148
576
root 0.469256 17.5163 -13.0574 10.3939 5.97072 -3.89045
lowerback 5.75216 -0.185629 4.75845
upperback 1.38149 0.104504 3.17075
thorax -1.79892 0.0387372 0.590091
lowerneck -14.2394 -0.207748 -1.48619
upperneck 25.9892 2.2255 -7.52103
head 10.8228 -0.0182242 -2.15819
rclavicle -3.97569e-015 -3.97569e-015
rhumerus -48.1192 -33.8181 -53.0465
rradius 9.2462
rwrist 8.83927
rhand -13.7024 15.2604
rfingers 7.12502
rthumb 12.4161 -14.3508
lclavicle -3.97569e-015 -3.97569e-015
lhumerus -41.8818 6.46373 77.8889
lradius 28.38
lwrist -2.73045
lhand -0.734225 41.9817
lfingers 7.12502
lthumb 24.8869 70.3817
rfemur -1.80983 2.45351 30.8369
rtibia 11.2077
rfoot -15.4395 -8.62333
rtoes 12.1686
lfemur -37.5507 -4.36782 -14.3684
ltibia 30.0902
lfoot -14.6908 -1.35513
ltoes -14.1653
577
root 0.472294 17.5356 -12.9693 10.6675 5.62982 -3.50588
lowerback 5.82471 -0.184222 4.25884
upperback 1.3399 0.0815863 3.08413
thorax -1.88388 0.0273958 0.781439
lowerneck -14.0651 -0.104851 -1.46893
upperneck 25.8622 2.38077 -7.63951
head 10.7494 0.0468561 -2.17927
rclavicle -9.34288e-015 -1.66979e-014
rhumerus -48.2694 -33.3028 -52.9811
rradius 9.37366
rwrist 8.47563
rhand -13.3499 15.3088
rfingers 7.12502
rthumb 12.7559 -14.2816
lclavicle -9.34288e-015 -1.66979e-014
lhumerus -42.3666 7.07055 77.572
lradius 28.1898
lwrist -3.09364
lhand -0.353552 41.898
lfingers 7.12502
lthumb 25.2517 70.247
rfemur -1.1835 2.68479 30.4374
rtibia 10.03
rfoot -14.9117 -8.98338
rtoes 12.4776
lfemur -38.1037 -4.25247 -14.8994
ltibia 29.3126
lfoot -14.7016 -2.19571
ltoes -10.3371
578
root 0.483745 17.5293 -12.8656 10.939 5.7048 -3.88244
lowerback 5.64103 -0.172256 4.68926
upperback 1.28668 0.116098 3.22241
thorax -1.83477 0.0432204 0.681146
lowerneck -14.2608 -0.121637 -1.54192
upperneck 26.0622 2.42323 -7.71638
head 10.8666 0.0401764 -2.19548
rclavicle 6.16232e-015 -2.46493e-014
rhumerus -48.6178 -33.168 -52.711
rradius 9.4421
rwrist 8.4166
rhand -13.6024 14.864
rfingers 7.12502
rthumb 12.5124 -14.7414
lclavicle 6.16232e-015 -2.46493e-014
lhumerus -42.8764 6.66467 77.7785
lradius 28.4852
lwrist -2.63855
lhand -0.233481 42.6681
lfingers 7.12502
lthumb 25.3667 71.0008
rfemur -0.643759 2.43235 30.9464
rtibia 9.05896
rfoot -14.4942 -9.02112
rtoes 12.3664
lfemur -38.775 -3.83758 -14.7834
ltibia 28.5692
lfoot -14.5827 -2.66063
ltoes -8.85996
579
root 0.493929 17.5354 -12.7698 10.9092 5.08947 -3.93911
lowerback 5.92871 -0.0264679 4.57806
upperback 1.44158 0.315812 3.25231
thorax -1.83187 0.144408 0.759584
lowerneck -14.3404 -0.222281 -1.59402
upperneck 25.9416 2.3095 -7.79984
head 10.8345 -0.0251614 -2.22978
rclavicle 5.96354e-015 -2.8625e-014
rhumerus -48.6716 -32.9846 -52.7093
rradius 9.51472
rwrist 8.37237
rhand -13.6123 15.033
rfingers 7.12502
rthumb 12.5029 -14.573
lclavicle 5.96354e-015 -2.8625e-014
lhumerus -42.86 7.09093 77.6388
lradius 27.9781
lwrist -2.83893
lhand 0.0113236 42.3995
lfingers 7.12502
lthumb 25.6012 70.6987
rfemur 0.540383 2.72006 30.9422
rtibia 7.44437
rfoot -13.7858 -9.07764
rtoes 12.0587
lfemur -38.8352 -3.86708 -14.6344
ltibia 28.0007
lfoot -14.2521 -2.37555
ltoes -5.01541
